<?xml version="1.0" standalone="no"?>
<!DOCTYPE svg PUBLIC "-//W3C//DTD SVG 20010904//EN"
 "http://www.w3.org/TR/2001/REC-SVG-20010904/DTD/svg10.dtd">
<svg version="1.0" xmlns="http://www.w3.org/2000/svg"
 width="800.000000pt" height="1100.000000pt" viewBox="0 0 800.000000 1100.000000"
 preserveAspectRatio="xMidYMid meet">

<g transform="translate(0.000000,1100.000000) scale(0.100000,-0.100000)"
fill="#000000" stroke="none">
<path d="M4305 10761 c-11 -5 -47 -10 -80 -10 -33 -1 -71 -8 -85 -16 -14 -8
-40 -22 -59 -30 -18 -9 -62 -35 -97 -57 -56 -36 -72 -54 -123 -137 -62 -102
-78 -152 -76 -241 1 -45 4 -55 18 -54 10 1 14 -3 10 -10 -4 -6 -9 -22 -11 -34
-2 -17 1 -22 10 -16 10 6 10 5 1 -7 -18 -23 -18 -60 2 -122 l19 -58 17 48 c9
26 36 107 59 178 24 76 51 140 64 153 41 42 151 54 241 27 27 -9 55 -13 63
-10 7 2 10 0 7 -5 -3 -6 0 -11 7 -11 7 -1 24 -3 38 -5 14 -2 51 -5 82 -8 66
-6 93 -18 109 -47 6 -12 17 -18 25 -15 9 3 12 1 9 -4 -4 -6 7 -10 24 -10 72 0
83 -48 59 -263 -14 -128 -4 -152 36 -91 13 22 28 53 31 69 6 28 26 77 47 117
7 14 5 16 -9 11 -16 -6 -16 -4 2 16 15 18 20 37 20 81 0 32 2 57 6 54 4 -2 14
8 24 22 12 19 15 37 11 68 -10 65 -22 76 -40 35 -10 -20 -14 -24 -10 -9 11 41
7 100 -8 118 -8 9 -21 32 -28 50 -20 52 -65 108 -97 121 -15 6 -33 21 -38 33
-20 42 -227 93 -280 69z"/>
<path d="M3968 10119 c-17 -10 -26 -41 -10 -37 18 4 119 -16 135 -27 16 -11
11 -14 -42 -20 -38 -4 -65 -13 -76 -25 -16 -17 -15 -19 5 -30 12 -6 30 -13 41
-15 16 -3 18 -1 9 16 -15 27 -3 24 24 -8 l23 -27 26 26 c26 26 44 22 33 -7 -3
-8 -1 -15 5 -15 7 0 9 -10 5 -25 -7 -29 -5 -30 34 -10 41 21 49 69 21 126 -14
28 -57 52 -131 75 -53 16 -79 17 -102 3z"/>
<path d="M3734 10079 c-4 -6 -10 -27 -14 -45 -6 -26 -5 -34 6 -34 8 0 14 9 14
19 0 11 5 23 10 26 8 5 8 11 1 19 -6 7 -8 16 -4 19 3 4 4 7 0 7 -3 0 -9 -5
-13 -11z"/>
<path d="M4397 10070 c-34 -10 -59 -29 -52 -40 3 -5 26 -5 53 -2 26 3 79 6
118 7 l71 0 -26 22 c-20 18 -38 23 -81 22 -30 0 -68 -5 -83 -9z"/>
<path d="M4380 9997 c-20 -10 -25 -20 -23 -46 0 -19 9 -41 18 -50 15 -15 15
-14 5 13 -8 22 -8 32 1 40 8 7 10 7 6 1 -9 -17 7 -34 33 -37 16 -2 27 4 35 19
13 25 25 20 25 -9 0 -21 4 -22 31 -8 37 20 -2 59 -86 84 -11 3 -31 0 -45 -7z"/>
<path d="M3753 9965 c-18 -19 -17 -85 0 -85 15 0 50 77 41 91 -8 13 -27 10
-41 -6z"/>
<path d="M4136 9701 c21 -35 22 -35 46 -17 16 12 16 15 2 32 -11 13 -17 15
-20 7 -4 -10 -11 -10 -26 -2 -20 11 -20 11 -2 -20z"/>
<path d="M4070 9562 c0 -16 23 -30 38 -25 11 5 13 3 7 -8 -8 -12 -6 -12 8 -1
9 8 21 11 28 7 16 -10 219 -13 219 -3 0 4 -30 9 -67 9 -89 2 -130 7 -153 19
-22 12 -80 13 -80 2z"/>
<path d="M4081 9273 c38 -34 42 -36 96 -30 102 11 89 36 -27 51 -30 4 -67 9
-82 11 -26 4 -26 3 13 -32z"/>
<path d="M3990 9291 c0 -6 4 -13 10 -16 6 -3 7 1 4 9 -7 18 -14 21 -14 7z"/>
<path d="M3705 9160 c-11 -12 -31 -20 -52 -20 -18 0 -41 -4 -51 -10 -9 -5 -75
-26 -147 -45 -260 -70 -309 -87 -333 -115 -10 -11 -12 -11 -6 -1 8 15 3 14
-48 -11 -15 -7 -30 -19 -33 -26 -3 -8 5 -7 23 4 l27 16 -24 -20 c-14 -11 -31
-17 -40 -14 -10 4 -12 1 -6 -8 5 -8 4 -11 -2 -7 -17 10 -90 -23 -101 -47 -32
-66 -83 -176 -96 -209 -10 -25 -20 -36 -28 -32 -7 4 -5 0 4 -8 11 -9 14 -17 7
-24 -5 -5 -11 -23 -14 -39 -2 -16 -9 -57 -16 -92 -8 -48 -9 -78 0 -119 6 -31
9 -58 7 -60 -7 -7 -46 106 -47 135 0 24 -15 -19 -65 -193 -7 -27 -14 -63 -14
-80 0 -16 -6 -37 -13 -46 -9 -12 -11 -38 -7 -85 5 -57 2 -79 -18 -134 -14 -36
-25 -76 -25 -90 0 -14 -9 -83 -20 -155 -10 -71 -22 -156 -24 -188 -3 -31 -9
-60 -14 -63 -16 -10 -9 -24 11 -24 11 0 20 -5 20 -11 0 -6 -7 -9 -15 -5 -8 3
-15 1 -15 -5 0 -6 -4 -8 -9 -5 -8 6 -21 -39 -21 -75 0 -16 5 -18 28 -13 l27 7
-22 -25 c-26 -28 -30 -60 -8 -78 23 -19 18 -33 -26 -79 -32 -32 -39 -45 -30
-54 8 -8 19 -8 42 0 45 17 33 -6 -24 -42 -44 -29 -67 -60 -67 -90 0 -8 7 -15
15 -15 8 0 15 -5 15 -11 0 -5 -4 -8 -9 -5 -13 9 -17 -11 -16 -96 0 -43 -3 -79
-7 -80 -3 -2 -9 -72 -12 -156 -3 -85 -8 -157 -10 -161 -2 -3 -6 -139 -8 -302
-3 -271 -2 -297 15 -313 9 -10 17 -18 17 -19 0 -1 5 -40 10 -87 7 -59 6 -95
-2 -122 -8 -29 -8 -41 2 -53 15 -18 30 -20 30 -2 0 7 7 22 16 33 8 10 13 15
11 9 -3 -5 1 -15 8 -22 10 -9 17 -8 31 8 10 11 24 17 31 14 8 -2 12 -1 9 4
-13 21 60 40 148 38 85 -2 89 -3 112 -32 25 -32 90 -181 88 -202 -1 -7 2 -10
7 -7 12 7 11 -3 -2 -27 -8 -17 -13 -18 -25 -8 -12 10 -16 8 -21 -9 -5 -22 -33
-31 -33 -11 0 6 -10 25 -22 42 l-23 32 -8 -45 c-4 -25 -10 -56 -13 -70 -3 -14
-6 -31 -6 -37 -1 -7 -5 -13 -9 -13 -5 0 -6 -6 -4 -12 3 -7 7 -40 9 -73 5 -77
24 -173 40 -205 8 -14 11 -31 8 -39 -3 -8 0 -11 7 -7 7 5 9 1 4 -10 -5 -15 -7
-15 -15 0 -5 9 -7 20 -3 25 3 5 -4 12 -14 16 -13 4 -18 11 -14 22 4 10 2 14
-4 10 -6 -4 -13 2 -16 13 -3 13 -11 18 -20 14 -12 -4 -14 0 -10 15 3 12 -3 31
-16 47 -12 15 -21 21 -21 13 0 -11 -2 -11 -10 1 -6 9 -5 17 3 22 9 6 7 11 -5
19 -24 14 -23 29 2 29 22 0 26 16 10 40 -8 12 -10 12 -10 -5 -1 -15 -5 -11
-15 13 -9 21 -21 32 -35 32 -17 0 -20 -4 -15 -20 5 -17 2 -20 -20 -20 -23 0
-25 -3 -20 -22 4 -16 3 -19 -3 -10 -7 11 -10 9 -15 -7 -3 -12 -1 -18 4 -15 5
3 15 -8 22 -25 7 -17 16 -28 20 -24 4 3 8 -1 8 -10 2 -30 4 -35 12 -43 4 -4 7
-23 7 -43 -1 -32 -2 -34 -12 -16 -17 29 -35 45 -42 38 -3 -4 -7 -1 -7 5 -3 27
-4 31 -12 39 -9 8 -3 -35 17 -126 8 -35 37 -65 48 -49 4 8 8 8 8 2 0 -6 12
-16 26 -22 14 -7 23 -8 19 -2 -3 5 -3 10 0 10 9 0 37 -71 31 -78 -3 -3 -6 1
-6 8 0 7 -3 10 -7 6 -5 -4 -8 -12 -8 -17 0 -20 -13 -12 -57 37 -47 53 -77 116
-81 169 -1 17 -4 32 -8 35 -3 3 -13 27 -23 54 -10 26 -21 43 -25 38 -8 -13 -5
-77 4 -91 3 -7 1 -10 -6 -9 -8 2 -13 -14 -16 -46 -3 -42 -1 -47 14 -42 10 4
14 4 10 0 -4 -4 -1 -14 6 -22 10 -13 9 -14 -3 -7 -11 6 -12 5 -5 -3 6 -6 22
-13 35 -16 14 -2 24 -9 22 -16 -2 -7 3 -20 10 -29 24 -29 39 -63 33 -69 -3 -4
-26 14 -49 39 -24 26 -47 48 -52 50 -6 2 -23 21 -39 42 -33 44 -39 39 -55 -40
-5 -26 -12 -59 -15 -73 -3 -14 -14 -77 -25 -140 -11 -63 -24 -128 -29 -145
-10 -34 -29 -150 -40 -245 l-7 -65 -8 75 -8 75 -29 -75 c-16 -41 -43 -118 -60
-170 -36 -110 -34 -173 6 -288 13 -37 26 -83 30 -102 9 -53 -21 -165 -68 -250
-37 -67 -41 -80 -39 -139 1 -35 4 -66 7 -69 3 -3 16 5 30 18 14 13 25 20 25
17 0 -4 -13 -54 -29 -112 -37 -131 -48 -332 -32 -598 10 -171 45 -397 62 -397
4 0 10 15 12 33 3 17 3 -4 0 -48 -2 -44 -10 -120 -18 -170 -18 -107 -19 -186
-4 -254 9 -42 8 -54 -6 -75 -12 -18 -15 -36 -10 -58 3 -18 10 -71 13 -116 7
-79 9 -86 40 -114 23 -20 32 -36 29 -49 -4 -16 1 -19 36 -20 74 -2 171 -31
182 -56 5 -12 21 -24 36 -27 16 -3 42 -24 64 -51 39 -47 64 -56 85 -30 15 18
4 110 -15 128 -24 22 -6 88 34 128 27 26 44 56 60 108 12 39 28 77 36 84 11
11 10 16 -6 26 -17 10 -19 19 -13 62 5 34 2 58 -6 75 -10 18 -11 29 -2 49 7
14 12 40 12 57 0 37 19 144 30 173 18 45 19 58 8 144 -9 75 -8 107 6 193 14
85 15 120 6 198 -5 52 -10 104 -10 115 0 11 -1 108 -3 215 -3 162 0 203 14
240 9 25 20 68 24 95 4 28 12 56 17 63 6 7 8 29 4 50 -5 33 -2 42 20 63 39 36
51 66 65 159 8 54 19 90 30 100 35 31 46 38 65 42 17 3 19 14 22 87 3 78 6 88
37 130 31 43 51 95 91 235 13 48 30 75 88 140 40 45 88 103 106 130 19 27 54
76 78 110 24 34 54 83 68 109 14 26 29 45 33 42 5 -2 12 -22 15 -42 4 -21 23
-95 42 -165 19 -69 39 -148 43 -175 5 -26 23 -106 40 -178 64 -270 67 -308 62
-746 -1 -102 1 -192 3 -200 3 -8 7 -76 10 -151 5 -122 4 -138 -10 -138 -12 0
-15 -6 -10 -25 4 -14 3 -25 -2 -25 -5 0 -14 -64 -21 -143 -6 -78 -16 -191 -21
-252 -22 -253 -34 -505 -34 -745 l-1 -255 -31 -30 c-25 -25 -33 -42 -38 -89
-11 -82 1 -157 25 -163 22 -6 22 -8 10 -31 -4 -9 -11 -34 -15 -55 l-7 -37 33
20 c76 47 114 60 172 60 67 0 130 -30 160 -75 10 -15 23 -24 29 -22 7 2 18 -3
25 -12 12 -14 13 -12 8 16 -5 30 -3 33 29 39 19 3 40 13 47 21 15 18 40 81 41
106 1 9 5 17 10 17 5 0 7 7 4 15 -4 8 -2 17 2 20 19 11 18 58 -1 77 -19 19
-20 23 -5 125 13 90 21 115 57 176 30 52 44 90 51 137 5 36 18 97 28 135 18
69 30 129 51 255 5 36 17 101 25 145 8 44 23 130 34 190 11 61 27 171 36 245
9 74 20 164 25 200 23 171 33 440 21 568 -7 70 -14 168 -17 217 -2 50 -9 121
-15 158 -6 38 -8 71 -5 74 3 4 6 -7 7 -23 1 -45 15 -2 23 71 4 33 9 78 12 100
4 28 2 36 -5 26 -12 -18 -4 95 9 124 5 11 11 47 14 80 10 114 46 283 86 401
22 66 40 133 40 149 0 43 -11 79 -20 65 -11 -18 0 87 16 149 8 30 21 63 31 73
15 17 15 21 3 29 -13 8 -13 11 2 22 9 7 18 26 21 43 2 16 17 54 33 84 26 50
29 64 28 150 0 52 -6 105 -12 117 -6 11 -13 42 -16 67 -3 43 -1 48 25 61 38
20 44 33 12 27 -16 -3 -24 -1 -20 5 5 7 -4 8 -26 3 -30 -7 -46 -13 -124 -47
-32 -14 -120 -27 -110 -16 4 3 -4 14 -16 23 l-22 18 25 27 c28 30 73 55 155
86 45 17 58 27 70 55 8 19 29 43 50 55 20 12 42 34 51 50 13 25 13 33 -1 65
-8 20 -15 47 -15 60 0 13 -4 33 -9 46 -36 96 -38 85 38 230 38 73 76 158 84
188 21 78 53 432 64 702 l7 173 13 -105 c10 -72 12 -161 9 -285 -6 -173 -1
-215 23 -201 22 14 -3 -28 -33 -54 -27 -25 -30 -34 -31 -88 0 -34 -4 -64 -8
-68 -17 -17 -5 -25 13 -9 11 10 20 23 20 29 0 6 20 16 45 22 l45 10 -28 -30
c-62 -67 -74 -83 -93 -126 -11 -25 -25 -70 -31 -100 -5 -30 -12 -67 -15 -82
-3 -17 -1 -28 5 -28 13 0 60 66 90 126 11 22 28 47 38 55 19 15 -27 -80 -55
-113 -8 -10 -11 -18 -8 -18 4 0 -2 -9 -13 -20 -12 -12 -18 -25 -15 -29 2 -5
-9 -14 -25 -21 -34 -14 -33 -13 -55 -141 -10 -65 -12 -104 -6 -121 6 -16 5
-42 -5 -78 -7 -29 -11 -64 -8 -77 4 -13 0 -33 -10 -47 -19 -30 -8 -41 47 -50
21 -3 51 -16 67 -28 28 -20 42 -37 20 -23 -5 3 -18 1 -27 -4 -17 -10 -17 -10
-1 -11 10 0 17 -3 17 -7 -3 -20 2 -34 11 -28 6 3 10 1 10 -6 0 -7 3 -9 6 -6 4
4 2 13 -4 20 -9 11 -8 14 4 14 13 0 15 -8 10 -39 -4 -26 -3 -37 4 -33 6 4 10
-5 11 -22 l1 -28 12 28 c7 15 15 24 19 21 4 -4 7 6 7 21 0 21 3 26 11 18 6 -6
9 -36 7 -71 -3 -54 -1 -59 14 -51 25 14 58 64 58 90 0 45 23 86 57 105 46 24
78 90 68 140 -4 24 -3 34 4 29 15 -9 14 18 -1 33 -9 9 -7 12 9 12 12 0 33 11
47 24 20 18 26 33 26 67 0 42 -10 71 -23 71 -19 0 -47 12 -47 20 0 10 45 6 56
-5 15 -14 22 -6 28 31 4 20 10 46 13 57 4 16 3 18 -8 8 -11 -11 -15 -27 -18
-73 -1 -10 -7 -7 -21 10 -24 31 -25 30 3 62 13 15 32 46 42 69 19 41 19 42 -3
81 l-21 40 24 -16 c26 -17 34 -6 16 23 -5 8 -3 35 6 67 9 38 11 60 3 73 -8 16
-7 18 10 14 22 -6 25 0 10 27 -6 11 -6 21 -1 24 5 3 7 15 4 26 -3 12 0 20 7
20 8 0 11 9 8 25 -3 14 -1 25 3 25 5 0 6 6 3 14 -9 23 18 31 33 11 12 -18 13
-17 13 8 0 15 -6 38 -14 50 -8 13 -12 35 -9 54 5 29 7 31 20 17 21 -21 25 -13
11 24 -14 36 -6 51 18 31 14 -11 18 -11 30 6 24 33 17 62 -21 83 -11 6 -14 12
-7 12 7 0 10 5 6 12 -4 6 -9 36 -11 67 -4 60 -20 130 -33 146 -5 6 -3 34 2 64
11 51 3 133 -17 183 -5 13 2 22 29 35 40 19 41 21 22 116 -12 64 -12 72 10
133 22 64 22 64 2 75 -11 6 -22 8 -26 5 -3 -3 1 -6 9 -6 11 -1 11 -2 -1 -9 -8
-5 -26 -12 -39 -16 l-23 -7 7 94 c3 51 9 120 11 153 6 69 5 258 -1 264 -3 2 7
13 21 24 22 17 25 25 20 56 -3 20 -8 50 -10 66 -4 43 -17 88 -29 102 -5 7 -9
31 -9 53 1 35 -5 44 -46 81 -70 62 -131 101 -144 93 -6 -4 -8 -3 -5 3 6 10
-64 47 -393 207 -57 28 -110 57 -118 64 -7 6 -19 12 -26 12 -7 0 -23 11 -35
24 -13 13 -31 26 -41 29 -18 5 -18 3 -3 -19 15 -23 14 -27 -11 -64 -76 -115
-315 -142 -584 -64 -170 48 -249 90 -277 145 -12 22 -12 28 3 42 15 16 15 17
-4 17 -12 0 -29 -9 -39 -20z m-225 -520 c7 -13 6 -46 -3 -110 -15 -100 -34
-131 -80 -133 -25 -2 -27 -7 -38 -74 -11 -67 -14 -73 -36 -73 -23 0 -23 2 -18
53 4 28 11 76 16 106 5 30 9 77 9 104 0 47 4 54 53 107 55 59 74 63 97 20z
m174 -2 c17 -9 18 -18 13 -91 -4 -51 -13 -89 -24 -106 -14 -21 -17 -43 -14
-108 3 -82 2 -83 -22 -83 -29 0 -37 20 -37 103 0 67 -15 76 -25 15 -15 -97
-18 -110 -31 -115 -8 -3 -20 -3 -27 0 -11 4 -10 34 9 164 13 87 26 178 29 201
l6 44 52 -7 c29 -4 61 -12 71 -17z m193 6 c-3 -4 0 -13 8 -21 19 -18 18 -48
-3 -212 -24 -173 -29 -179 -148 -155 -13 2 -24 14 -28 29 -7 28 30 300 45 327
10 18 29 25 89 31 19 2 37 5 39 5 2 1 2 -1 -2 -4z m119 -100 c-7 -85 -7 -86
16 -82 18 2 24 10 26 38 7 103 12 120 37 120 13 0 26 -3 28 -7 4 -6 -36 -380
-42 -400 -1 -2 -13 -3 -27 -3 l-25 0 6 83 c4 45 8 88 10 95 3 7 -5 12 -19 12
-22 0 -25 -6 -36 -85 -11 -78 -14 -85 -34 -85 -13 0 -25 2 -28 5 -2 3 -1 35 4
72 4 38 12 109 18 158 20 169 19 165 47 165 l26 0 -7 -86z m211 53 c2 -3 -47
-411 -50 -414 -2 -1 -13 0 -25 4 -26 6 -28 30 -12 145 5 40 15 119 21 176 l11
104 27 -7 c14 -4 27 -7 28 -8z m164 -33 c19 -17 21 -26 15 -93 -3 -41 -11 -78
-17 -82 -8 -4 -7 -12 2 -26 9 -15 9 -37 1 -94 -14 -93 -25 -103 -107 -93 -33
3 -61 7 -62 8 -1 1 4 47 12 101 7 55 19 147 26 204 l13 103 48 -4 c28 -3 57
-13 69 -24z m124 -14 c3 -5 -1 -62 -9 -127 -8 -65 -18 -149 -21 -188 -7 -73
-15 -86 -46 -78 -21 6 -21 9 2 203 6 47 13 111 16 143 5 51 8 57 29 57 12 0
26 -4 29 -10z m175 -50 c0 -25 -17 -43 -33 -37 -18 7 -21 -8 -37 -173 -15
-145 -18 -160 -33 -160 -43 1 -44 27 -10 301 5 41 3 47 -17 52 -18 4 -20 10
-15 29 11 34 20 36 85 19 40 -10 60 -21 60 -31z m108 -13 c27 -9 32 -16 30
-37 -3 -22 -7 -25 -35 -22 -32 3 -33 3 -33 -37 0 -23 0 -44 -1 -48 0 -5 10
-10 23 -13 18 -5 23 -13 23 -35 0 -28 -2 -30 -32 -27 -33 3 -33 3 -34 -42 -1
-25 -2 -52 -3 -58 -1 -7 10 -15 24 -16 34 -5 44 -16 36 -45 l-6 -24 -57 15
c-32 9 -59 16 -61 17 -1 1 2 37 7 81 5 43 15 126 21 184 16 148 7 138 98 107z
m127 -46 c72 -33 76 -47 59 -212 -20 -202 -25 -210 -112 -177 -40 15 -52 24
-48 36 10 35 27 211 25 268 -1 66 8 104 25 104 6 0 29 -9 51 -19z m170 -386
c6 -30 6 -30 -10 4 -17 38 -19 49 -6 36 5 -6 12 -23 16 -40z m-1040 -24 c-9
-69 -15 -81 -34 -81 -31 0 -32 3 -6 117 4 16 10 20 26 16 19 -5 20 -11 14 -52z
m35 27 c0 -21 0 -21 15 -2 19 25 19 3 0 -43 -8 -19 -15 -44 -15 -54 0 -11 -7
-19 -16 -19 -11 0 -14 5 -10 16 3 9 6 40 6 70 0 30 5 54 10 54 6 0 10 -10 10
-22z m81 -72 c-5 -22 -6 -36 0 -36 5 0 9 -4 9 -10 0 -5 -9 -10 -20 -10 -11 0
-20 6 -20 13 0 14 18 85 27 107 12 27 15 -26 4 -64z m84 64 c9 -14 -14 -118
-27 -126 -7 -5 -9 2 -6 20 3 14 1 26 -3 26 -5 0 -9 -9 -9 -20 0 -11 -4 -20
-10 -20 -5 0 -10 6 -10 13 0 11 15 75 25 105 5 15 31 16 40 2z m36 -22 c0 -22
1 -22 11 2 l11 25 6 -25 7 -25 8 25 c8 23 9 24 13 4 5 -25 -30 -117 -43 -112
-5 2 -8 7 -6 12 2 5 -4 3 -13 -4 -8 -7 -17 -11 -20 -9 -7 8 8 129 16 129 5 0
9 -10 10 -22z m-1191 -848 c0 -27 -3 -50 -7 -50 -5 0 -6 22 -5 50 5 65 12 65
12 0z m1953 -92 c6 -22 5 -22 -8 -4 -17 22 -20 40 -6 32 5 -3 11 -16 14 -28z
m-13 -391 c0 -1 -13 -15 -30 -30 -26 -25 -30 -26 -30 -10 0 10 10 23 23 29 22
12 37 16 37 11z m-2550 -247 c0 -5 -4 -10 -10 -10 -5 0 -10 5 -10 10 0 6 5 10
10 10 6 0 10 -4 10 -10z m2463 -360 c-3 -12 -8 -19 -11 -16 -5 6 5 36 12 36 2
0 2 -9 -1 -20z m-1983 -918 c0 -13 -5 -32 -10 -42 -8 -16 -8 -18 5 -14 8 4 15
3 15 -1 0 -11 -27 -34 -34 -28 -3 4 -6 1 -6 -6 0 -24 -17 -1 -24 31 -18 82
-17 95 7 105 26 12 46 -8 47 -45z m-254 -191 c-1 -17 2 -28 6 -25 4 3 8 -2 8
-10 0 -9 0 -19 1 -23 0 -4 -4 -9 -9 -11 -5 -1 -15 17 -21 42 -14 56 -14 56 3
56 9 0 13 -10 12 -29z m268 -44 c-2 -51 -3 -57 -16 -57 -18 0 -48 31 -48 50 0
22 20 40 45 40 16 0 20 -6 19 -33z m-154 -176 c12 -12 10 -11 -9 0 -14 9 -27
22 -29 30 -3 11 -2 11 9 -1 8 -8 21 -21 29 -29z m-110 23 c0 -8 -19 -13 -24
-6 -3 5 1 9 9 9 8 0 15 -2 15 -3z m234 -135 c-9 -15 -30 -10 -49 11 -18 19
-17 20 3 20 11 0 24 5 28 12 5 7 10 4 16 -11 4 -13 6 -27 2 -32z m-169 -49 c3
-5 -3 -10 -14 -10 -11 0 -23 5 -26 10 -3 6 3 10 14 10 11 0 23 -4 26 -10z
m102 -6 c6 -17 -45 -14 -59 3 -10 12 -7 14 22 11 18 -2 35 -8 37 -14z m-657
-3063 c0 -6 -4 -13 -10 -16 -5 -3 -10 1 -10 9 0 9 5 16 10 16 6 0 10 -4 10 -9z"/>
<path d="M3397 8603 c-3 -5 -8 -38 -12 -75 -5 -57 -4 -68 9 -68 17 0 22 14 31
93 5 47 4 57 -9 57 -8 0 -17 -3 -19 -7z"/>
<path d="M3576 8553 c-3 -21 -9 -48 -12 -60 -5 -18 -2 -22 15 -20 15 1 22 10
26 32 11 69 10 80 -6 83 -12 2 -18 -7 -23 -35z"/>
<path d="M3765 8568 c-2 -7 -11 -67 -20 -132 -14 -98 -14 -120 -3 -127 31 -20
42 1 52 101 3 36 9 89 12 118 6 48 5 52 -15 52 -12 0 -23 -6 -26 -12z"/>
<path d="M4264 8475 c-7 -50 -3 -61 21 -52 21 9 22 97 1 97 -10 0 -17 -16 -22
-45z"/>
<path d="M4250 8337 c0 -8 -3 -35 -6 -61 -6 -42 -5 -46 14 -46 16 0 23 8 27
34 9 48 3 80 -17 84 -11 2 -18 -3 -18 -11z"/>
<path d="M4859 8363 c0 -10 -6 -71 -13 -137 -10 -98 -10 -119 1 -123 8 -3 16
-4 18 -1 7 6 25 176 25 231 0 35 -4 47 -15 47 -8 0 -15 -8 -16 -17z"/>
<path d="M3981 8044 c0 -11 3 -14 6 -6 3 7 2 16 -1 19 -3 4 -6 -2 -5 -13z"/>
<path d="M3972 7990 c0 -14 2 -19 5 -12 2 6 2 18 0 25 -3 6 -5 1 -5 -13z"/>
<path d="M4176 8024 c-4 -9 -4 -19 -1 -22 2 -3 7 3 11 12 4 9 4 19 1 22 -2 3
-7 -3 -11 -12z"/>
<path d="M2510 5087 c1 -27 29 -80 30 -55 0 9 3 24 7 34 5 13 3 15 -8 9 -12
-7 -12 -6 -1 7 10 13 9 16 -8 21 -16 4 -20 0 -20 -16z"/>
<path d="M2431 5005 c0 -33 -3 -72 -6 -86 -3 -18 2 -34 16 -50 l20 -24 -5 92
c-6 111 -24 160 -25 68z"/>
<path d="M2156 3451 c-10 -11 -16 -31 -14 -46 3 -26 4 -25 25 19 24 48 19 60
-11 27z"/>
<path d="M1772 420 c27 -17 164 -28 248 -21 75 6 75 6 -55 13 -71 4 -148 10
-170 13 -32 5 -36 4 -23 -5z"/>
<path d="M3686 260 c87 -42 303 -52 384 -17 33 14 29 14 -80 9 -101 -4 -172 1
-310 23 l-35 5 41 -20z"/>
</g>
</svg>
